<svg width="17" height="14" viewBox="0 0 17 14" fill="none" xmlns="http://www.w3.org/2000/svg">
<path fill-rule="evenodd" clip-rule="evenodd" d="M16.2224 4.44701L8.60264 0L0.98291 4.44701H16.2224ZM16.4107 11.823H16.4115V5.00467C16.4115 4.92906 16.4032 4.85587 16.3898 4.7838L9.10963 9.0326C9.10456 9.03557 9.09927 9.03799 9.09397 9.04041C9.08995 9.04225 9.08592 9.0441 9.08199 9.04618C9.07237 9.05116 9.06259 9.05598 9.0528 9.06056C9.00113 9.08539 8.94833 9.10539 8.89425 9.11849C8.89118 9.11928 8.88811 9.11981 8.88504 9.12034C8.88253 9.12077 8.88002 9.1212 8.87751 9.12178C8.81811 9.13512 8.75793 9.14307 8.69784 9.14307H8.69698H8.69655C8.63646 9.14307 8.57629 9.13488 8.51688 9.12178C8.51458 9.12129 8.51228 9.12088 8.50998 9.12048C8.5067 9.11991 8.50342 9.11934 8.50014 9.11849C8.44597 9.10539 8.39301 9.08539 8.34159 9.06056C8.3318 9.05598 8.32202 9.05116 8.3124 9.04618C8.30851 9.04414 8.30456 9.04232 8.30061 9.04052C8.29525 9.03806 8.28991 9.03561 8.28476 9.0326L1.00454 4.7838C0.991151 4.85587 0.98291 4.92922 0.98291 5.00467V11.823C0.98291 12.5362 1.60047 13.1143 2.36259 13.1143H15.031C15.7931 13.1143 16.4107 12.5363 16.4107 11.823Z" fill="white"/>
</svg>
