<svg width="13" height="17" viewBox="0 0 13 17" fill="none" xmlns="http://www.w3.org/2000/svg">
<path d="M3.71965 3.05551C3.77025 3.03262 3.82086 3.01777 3.87106 3.00663V2.68262C3.87106 1.49919 4.80141 0.536235 5.94473 0.536235C7.08805 0.536235 8.01801 1.49919 8.01801 2.68262V3.99949C8.01801 4.03641 7.98892 4.06652 7.95326 4.06652H7.8684C7.83274 4.06652 7.80365 4.03641 7.80365 3.99949V2.68241C7.80365 1.62087 6.96992 0.757123 5.94473 0.757123C4.91915 0.757123 4.08482 1.62087 4.08482 2.68241V2.99199C4.29101 3.01137 4.47429 3.1246 4.59024 3.30424C4.59403 3.31022 4.59741 3.316 4.6008 3.32198C4.6014 3.3228 4.60239 3.32445 4.60279 3.32548V2.68241C4.60279 1.91663 5.20483 1.29336 5.94473 1.29336C6.68424 1.29336 7.28568 1.91663 7.28568 2.68241V3.99949C7.28568 4.16077 7.34823 4.3068 7.44844 4.41528C7.55363 4.45426 7.65025 4.51139 7.73671 4.58564C7.77914 4.59595 7.82297 4.60276 7.8684 4.60276H7.95326C8.2744 4.60276 8.53598 4.33196 8.53598 3.99949V2.68262C8.53598 1.20323 7.37353 0 5.94473 0C4.51573 0 3.35309 1.20323 3.35309 2.68262V3.49502C3.40907 3.30795 3.53677 3.1442 3.71965 3.05551Z" fill="#263034"/>
<path d="M11.1419 11.3711C11.1148 11.368 11.0844 11.3653 11.0535 11.3626L11.063 11.5583C11.1417 11.7677 11.1523 11.9863 11.0943 12.196L11.2567 15.4945C11.2577 15.5125 11.2511 15.5308 11.2395 15.5436C11.2272 15.557 11.2101 15.5646 11.1923 15.5646H6.10885C6.0694 15.7465 6.03514 15.9245 6.00446 16.1009H11.1923C11.3511 16.1009 11.5049 16.0324 11.6151 15.9126C11.7244 15.7932 11.7824 15.6306 11.7742 15.4669L11.5679 11.2739C11.4645 11.3377 11.3439 11.375 11.216 11.375C11.2049 11.375 11.1525 11.3723 11.1419 11.3711Z" fill="#263034"/>
<path d="M10.2317 4.80418C10.1991 4.90895 10.1287 5.0857 10.0309 5.29112H10.6933C10.7276 5.29112 10.7561 5.31896 10.7579 5.35485L10.8348 6.91818C10.8971 6.98273 10.9509 7.05595 10.9947 7.13762C11.137 7.41667 11.1473 7.72686 11.0278 8.01808C10.9949 8.09914 10.9507 8.17606 10.9001 8.2499L10.9071 8.3852C11.08 8.39097 11.2537 8.39468 11.4262 8.39592L11.2752 5.32783C11.2595 5.0065 11.0041 4.75488 10.6933 4.75488H10.2447C10.2419 4.7654 10.2409 4.77633 10.2375 4.78685C10.2357 4.79263 10.2337 4.7984 10.2317 4.80418Z" fill="#263034"/>
<path d="M0.800891 12.1353C0.703468 12.0372 0.63451 11.9091 0.61286 11.7612C0.573971 11.5197 0.66959 11.2803 0.851006 11.125L0.875261 10.6333C0.752781 10.4743 0.678009 10.282 0.668989 10.0677C0.655759 9.79983 0.751778 9.53831 0.939609 9.33537L0.965067 8.81852C0.794276 8.73149 0.624286 8.64961 0.455299 8.57227L0.247223 12.7772C0.360883 12.6619 0.554527 12.4907 0.792271 12.3142L0.800891 12.1353Z" fill="#263034"/>
<path d="M4.55653 15.5939C4.4617 15.6464 4.35671 15.6778 4.24774 15.6778C4.14674 15.6778 4.04633 15.6535 3.95688 15.6073C3.93278 15.5951 3.91166 15.5794 3.88955 15.5646H0.696856C0.679125 15.5646 0.661793 15.5569 0.650039 15.5437C0.637887 15.5305 0.631313 15.5124 0.632309 15.494L0.703629 14.0431C0.516562 14.0435 0.329495 13.9664 0.195819 13.8232L0.114737 15.4666C0.106768 15.631 0.16494 15.7937 0.27471 15.9133C0.384281 16.0323 0.537879 16.1008 0.696856 16.1008H4.55474C4.54836 15.954 4.54797 15.7805 4.55653 15.5939Z" fill="#263034"/>
<path d="M8.11908 5.42302H8.16995C8.32051 5.20253 8.46756 4.97974 8.60984 4.75488H7.892C7.92323 4.80602 7.9557 4.85613 7.98134 4.91344C8.05 5.06711 8.09488 5.24031 8.11908 5.42302Z" fill="#263034"/>
<path d="M0.988404 6.9386C0.98442 6.81691 1.0141 6.70018 1.07008 6.59623L1.13105 5.35444C1.13264 5.31896 1.16113 5.29112 1.19559 5.29112H2.44549C2.44629 5.29029 2.44669 5.28947 2.44749 5.28885C2.62041 5.13107 2.83915 5.04651 3.07722 5.04651C3.27803 5.04651 3.47725 5.10962 3.66153 5.21996C3.63105 5.06342 3.59858 4.90936 3.56451 4.75488H1.19559C0.884611 4.75488 0.629212 5.0065 0.613473 5.32762L0.529602 7.03553C0.661884 7.05678 0.835802 7.09204 1.02865 7.14361C1.00633 7.07761 0.990396 7.00913 0.988404 6.9386Z" fill="#263034"/>
<path d="M9.90441 11.0986C9.7291 11.0627 9.55358 11.0439 9.395 11.0439C9.14737 11.0439 8.8344 11.0887 8.75392 11.2947C8.63658 11.5713 9.00354 11.9931 9.42011 12.2892C9.63068 12.439 9.87034 12.5215 10.0937 12.5215C10.3821 12.5215 10.6051 12.3866 10.7067 12.1469C10.7718 11.9791 10.7595 11.7932 10.671 11.6229C10.5361 11.3651 10.2499 11.1695 9.90441 11.0986Z" fill="#263034"/>
<path d="M11.3033 10.4222C11.2892 10.4172 11.1917 10.3863 11.0234 10.3553C10.6813 10.2873 10.1807 10.2582 9.58763 10.2772L9.49719 10.2794C9.25892 10.2869 8.99017 10.3046 8.71505 10.3234C8.34809 10.3475 7.96738 10.3735 7.63807 10.3743L7.5544 10.3749C7.15975 10.3749 7.02009 10.8413 7.22509 11.0927C7.62054 11.5532 8.03631 12.1882 8.40307 12.7488C8.67959 13.1722 8.94176 13.5725 9.16748 13.852C9.52428 14.3808 10.1361 14.8348 10.315 14.9307L10.3142 14.9317C10.3586 14.9587 10.4094 14.9725 10.4618 14.9725C10.5536 14.9725 10.6405 14.93 10.6997 14.8556C10.7969 14.7343 10.7927 14.5596 10.6917 14.4501C10.1847 13.8931 9.68346 13.1838 9.24179 12.5584L9.14118 12.4159C8.96766 12.1658 8.80151 11.9374 8.65429 11.7355C8.44332 11.4455 8.27119 11.21 8.18393 11.0506C8.3206 11.0186 8.63297 11.0071 8.89196 10.9984C9.04595 10.9924 9.2127 10.9864 9.38363 10.9768C9.74442 10.9621 10.1927 10.9442 10.5658 10.9442C10.8296 10.9442 11.0302 10.9526 11.1806 10.9704C11.1858 10.971 11.2107 10.9722 11.2161 10.9722C11.3495 10.9722 11.4651 10.8854 11.4968 10.76C11.5322 10.6173 11.4485 10.469 11.3033 10.4222Z" fill="#263034"/>
<path d="M6.81558 12.8286C6.79247 12.8286 6.76976 12.8315 6.74047 12.84C6.46396 12.9319 6.3767 13.4892 6.41216 14.0005C6.44802 14.5458 6.77832 14.9727 7.16361 14.9727C7.21601 14.9727 7.26781 14.9651 7.31741 14.9502C7.48555 14.9016 7.61943 14.7774 7.69314 14.6013C7.8039 14.3356 7.77382 13.9712 7.61285 13.6493C7.40885 13.2411 7.08333 12.8286 6.81558 12.8286Z" fill="#263034"/>
<path fill-rule="evenodd" clip-rule="evenodd" d="M8.02831 12.8679C8.53054 13.4792 8.76801 13.8897 8.86483 14.0792C8.95468 14.2522 8.99034 14.3531 8.99054 14.3539C9.04373 14.4933 8.98536 14.6544 8.85547 14.7159C8.74032 14.7732 8.57477 14.7196 8.49747 14.5911C8.27215 14.2182 7.75339 13.5951 7.37347 13.1402C7.26014 13.0079 7.15154 12.8763 7.05102 12.7544L7.04357 12.7454L7.04239 12.744C6.87548 12.5415 6.67476 12.2981 6.56943 12.2121C6.50468 12.381 6.43296 12.6668 6.3461 13.0175C6.28494 13.2635 6.21561 13.5417 6.13413 13.8381L6.07755 14.0549L6.07508 14.0643C5.88403 14.7952 5.66792 15.622 5.56616 16.3613C5.54584 16.5116 5.42152 16.6212 5.26972 16.6212H5.26514C5.11492 16.6193 4.98623 16.5057 4.96571 16.3572H4.9673C4.93124 16.1536 4.89817 15.3705 5.06532 14.7565C5.13564 14.3941 5.27649 13.9266 5.4263 13.4316L5.43237 13.4115C5.62413 12.7758 5.84053 12.0585 5.93949 11.4615C6.00324 11.1396 6.47061 11.0105 6.74135 11.3485C6.951 11.6221 7.20862 11.9157 7.45766 12.1994L7.45954 12.2016C7.64103 12.4078 7.81813 12.6093 7.96994 12.7951L8.02831 12.8679Z" fill="#263034"/>
<path d="M4.24241 12.2771C4.1942 12.2425 4.13423 12.2256 4.0651 12.2256C3.83779 12.2256 3.48199 12.4248 3.15985 12.7329C2.90166 12.9786 2.75205 13.31 2.76918 13.6004C2.78074 13.7914 2.86481 13.9539 3.00565 14.0577C3.10168 14.1296 3.21583 14.1682 3.33556 14.1682C3.65989 14.1682 3.99577 13.8945 4.17288 13.4874C4.37748 13.0165 4.48048 12.4607 4.24241 12.2771Z" fill="#263034"/>
<path d="M5.36056 11.4373C5.4524 10.9893 5.07269 10.6983 4.77426 10.8565C4.25429 11.1537 3.56818 11.4284 2.96156 11.6704C2.49658 11.8568 2.0581 12.0317 1.74054 12.2006C1.17098 12.4522 0.593041 12.9695 0.467732 13.1182L0.466736 13.1176C0.364735 13.2287 0.359954 13.3999 0.455181 13.5249C0.514548 13.602 0.600611 13.6462 0.693447 13.6462C0.744846 13.6462 0.795647 13.632 0.839475 13.6053C1.45048 13.2335 2.18958 12.9031 2.84183 12.6108L3.10022 12.4953C3.37713 12.3757 3.63373 12.2565 3.86024 12.1513C4.17759 12.0034 4.43558 11.8838 4.60114 11.8327C4.60273 11.9698 4.54237 12.2876 4.49316 12.5512C4.46268 12.7117 4.42961 12.8858 4.39972 13.0644C4.28557 13.6885 4.14353 14.4646 4.00148 14.8781C3.95088 15.026 4.00686 15.1852 4.13058 15.2473C4.16704 15.266 4.20708 15.2755 4.24772 15.2755C4.34594 15.2755 4.43897 15.2188 4.49256 15.1237C4.50093 15.1087 4.55173 15.0179 4.61847 14.8568C4.70154 14.6611 4.86331 14.2138 5.01312 13.4249L5.03125 13.3325C5.07647 13.0967 5.11811 12.8319 5.16054 12.5605C5.22071 12.1777 5.28266 11.7815 5.36056 11.4373Z" fill="#263034"/>
<path d="M1.8789 10.6853C1.98807 10.6853 2.09964 10.6709 2.21 10.6416C2.69351 10.5143 3.17821 10.2522 3.17084 9.94572C3.15191 9.64357 2.6451 9.42949 2.15163 9.35132C1.77112 9.29007 1.41811 9.39443 1.21729 9.61181C1.10314 9.73556 1.04656 9.88694 1.05473 10.0503C1.07007 10.4242 1.40894 10.6853 1.8789 10.6853Z" fill="#263034"/>
<path d="M2.43306 9.1614C2.69762 9.31278 2.94844 9.44622 3.17037 9.56419C3.47558 9.72692 3.725 9.85974 3.86864 9.96493C3.76265 10.0534 3.48275 10.204 3.25066 10.3287C3.1126 10.4028 2.96318 10.4834 2.81038 10.5698C2.29819 10.8489 1.59813 11.2321 1.19631 11.3746C1.05725 11.4245 0.972384 11.5627 0.994697 11.7015C1.01402 11.8341 1.12758 11.9302 1.26544 11.9302C1.27201 11.9302 1.30249 11.9286 1.30966 11.9273C1.31703 11.9261 1.41963 11.9113 1.59315 11.8618C1.79396 11.8067 2.23384 11.659 2.92314 11.289L3.00422 11.2467C3.20902 11.1374 3.43314 11.0065 3.66344 10.873C3.99135 10.6827 4.33023 10.4861 4.642 10.3333C5.03287 10.1295 5.01614 9.63741 4.71412 9.49655C4.16348 9.26143 3.52677 8.87369 2.96478 8.53256C2.53745 8.27249 2.13383 8.02685 1.8101 7.87546C1.21204 7.5397 0.415367 7.41183 0.298027 7.41162C0.161163 7.41162 0.0422289 7.51206 0.00836165 7.65767C-0.0263025 7.81235 0.0494008 7.96477 0.18746 8.01963C0.84329 8.28135 1.54653 8.67095 2.1673 9.01435L2.43306 9.1614Z" fill="#263034"/>
<path d="M2.97504 6.89657C3.30276 7.15458 3.649 7.31524 3.87771 7.31524H3.8779C3.96696 7.31524 4.04007 7.29173 4.10083 7.24038C4.31519 7.03764 4.16199 6.4946 3.91496 6.04622C3.71474 5.68302 3.38623 5.44873 3.07724 5.44873C2.9354 5.44873 2.80511 5.49864 2.70171 5.5929C2.57083 5.71004 2.5015 5.87958 2.50767 6.07179C2.51704 6.36157 2.69614 6.67815 2.97504 6.89657Z" fill="#263034"/>
<path d="M1.69504 7.32186C1.86199 7.45076 2.24767 7.71599 2.9553 8.04392L3.03818 8.08331C3.24835 8.18169 3.48762 8.28337 3.73285 8.38752C4.08029 8.53416 4.43889 8.68596 4.74748 8.84374C5.13954 9.0308 5.51427 8.74082 5.42423 8.37701C5.25987 7.78611 5.15668 7.03023 5.06543 6.36323C4.9959 5.85484 4.93016 5.37429 4.84231 5.01625C4.73413 4.38329 4.37773 3.68701 4.26597 3.52737H4.26696C4.18827 3.40528 4.03128 3.35351 3.88446 3.41951C3.74799 3.48571 3.67787 3.64576 3.72249 3.79095C3.93685 4.49858 4.08328 5.33036 4.21238 6.06397L4.2578 6.32054C4.308 6.62228 4.36099 6.89947 4.40821 7.14469C4.47654 7.5017 4.53232 7.79292 4.54408 7.98349C4.40602 7.95173 4.13448 7.82695 3.87091 7.70485C3.73285 7.64174 3.58424 7.57327 3.42984 7.50542C2.90052 7.26514 2.17615 6.93556 1.81636 6.69756C1.69723 6.61857 1.53029 6.63878 1.44482 6.73736C1.3986 6.7883 1.3743 6.85533 1.37669 6.92628C1.37888 7.003 1.41275 7.07808 1.46634 7.12985C1.46693 7.13067 1.54084 7.20554 1.69504 7.32186Z" fill="#263034"/>
<path d="M6.85983 6.92421C6.8668 6.92586 6.8937 6.92731 6.90127 6.92731C7.17539 6.92731 7.47283 6.47708 7.64535 6.03076C7.77624 5.69438 7.77325 5.32809 7.63758 5.07564C7.54793 4.90694 7.4035 4.79701 7.23257 4.76463C7.03693 4.72647 6.85106 4.79618 6.70125 4.95417C6.51637 5.15051 6.40999 5.46689 6.41796 5.79936C6.42832 6.31414 6.56698 6.86028 6.85983 6.92421Z" fill="#263034"/>
<path d="M5.63826 6.40978L5.65977 6.50115C5.71615 6.73111 5.78847 6.98954 5.86278 7.25518C5.96836 7.63013 6.07654 8.01746 6.14965 8.35962C6.25285 8.80119 6.72619 8.88265 6.92163 8.61763C7.26548 8.12017 7.76951 7.56908 8.21377 7.08296C8.55782 6.70677 8.88374 6.35038 9.10208 6.05257C9.50889 5.56954 9.81668 4.84748 9.86768 4.66104L9.86848 4.66124C9.9141 4.5177 9.84956 4.36013 9.71528 4.28691C9.58479 4.21596 9.41247 4.26195 9.33159 4.38508C8.92598 5.00526 8.38231 5.64792 7.90278 6.21467L7.75237 6.39266C7.55315 6.62428 7.37366 6.84207 7.21647 7.0345C6.99016 7.31004 6.80568 7.53443 6.6732 7.66086C6.61204 7.52804 6.53056 7.20279 6.46203 6.93344C6.42517 6.78494 6.38453 6.62551 6.3411 6.46299L6.33015 6.41968C6.17017 5.78713 5.98908 5.06981 5.94665 4.65052C5.93171 4.49728 5.81955 4.38137 5.66834 4.37518C5.52869 4.37518 5.41394 4.48841 5.40119 4.64103C5.40019 4.65361 5.39162 4.75859 5.3984 4.93802C5.40497 5.15437 5.44521 5.63142 5.63826 6.40978Z" fill="#263034"/>
<path d="M9.36394 7.32155C8.97765 7.6569 8.65073 8.11311 8.79078 8.37381C8.85752 8.50601 9.02327 8.57304 9.28266 8.57304H9.28306C9.48048 8.57304 9.71974 8.53282 9.95622 8.45899C10.2931 8.35483 10.5603 8.13106 10.6702 7.86129C10.7431 7.6831 10.7386 7.49665 10.6551 7.33248C10.5485 7.13387 10.3455 7.02002 10.0977 7.02002C9.85342 7.02002 9.58607 7.13015 9.36394 7.32155Z" fill="#263034"/>
<path d="M12.6564 9.01862C12.6289 8.87425 12.5094 8.76989 12.3496 8.76989H12.3476C12.1038 8.78949 11.8352 8.79918 11.5274 8.79918C11.0278 8.79918 10.505 8.77361 10.044 8.75071L9.84421 8.74061C9.53801 8.72246 9.25353 8.71318 9.0041 8.70493C8.65826 8.694 8.37836 8.68471 8.2146 8.65955C8.27496 8.52838 8.4694 8.25985 8.63057 8.03711C8.72002 7.91336 8.81644 7.77992 8.91346 7.64132C9.28082 7.13087 9.73783 6.49584 10.0367 6.19101C10.1432 6.08315 10.1606 5.9196 10.0779 5.80431C9.99582 5.68778 9.82648 5.66055 9.70456 5.74491C9.69798 5.74965 9.61152 5.80822 9.47685 5.92846C9.2089 6.1642 8.85788 6.56885 8.51522 7.03806L8.45984 7.11293C8.31859 7.30494 8.16639 7.52913 8.0098 7.75888C7.79464 8.07402 7.57231 8.40051 7.36293 8.66821C7.0914 9.03017 7.32369 9.46122 7.64662 9.45277C8.24269 9.42389 8.98199 9.48742 9.62527 9.54352C10.0861 9.58394 10.521 9.62251 10.8527 9.62251L10.9411 9.62106C10.9993 9.6254 11.0587 9.62704 11.1176 9.62704C11.6814 9.62704 12.3076 9.4472 12.4705 9.37501L12.4707 9.37543C12.606 9.32345 12.6857 9.16939 12.6564 9.01862Z" fill="#263034"/>
</svg>
