<svg width="91" height="14" viewBox="0 0 91 14" fill="none" xmlns="http://www.w3.org/2000/svg">
<path d="M4.03457 10.6429C3.32654 10.6429 2.6972 10.5575 2.14652 10.3867C1.59583 10.216 1.07957 9.9267 0.597724 9.51882C0.332215 9.29116 0.199463 9.0398 0.199463 8.76472C0.199463 8.54655 0.283048 8.35447 0.45022 8.18847C0.617392 8.02247 0.818979 7.93947 1.05499 7.93947C1.24183 7.93947 1.40899 7.99638 1.5565 8.11021C1.94985 8.42324 2.33335 8.65089 2.70703 8.79317C3.08071 8.93546 3.52322 9.0066 4.03457 9.0066C4.58525 9.0066 5.05972 8.88803 5.45798 8.65089C5.85624 8.41375 6.05537 8.1197 6.05537 7.76873C6.05537 7.34188 5.8587 7.00751 5.46536 6.76563C5.07201 6.52375 4.44758 6.34115 3.59206 6.21784C1.43849 5.9143 0.361717 4.94678 0.361717 3.31525C0.361717 2.71766 0.52397 2.19833 0.848481 1.75725C1.17299 1.31616 1.6155 0.97943 2.17602 0.747032C2.73653 0.514635 3.36096 0.398438 4.04932 0.398438C4.66884 0.398438 5.25147 0.48855 5.79724 0.668776C6.34301 0.849003 6.79781 1.08614 7.16165 1.38019C7.44683 1.59836 7.58941 1.84973 7.58941 2.1343C7.58941 2.35247 7.50583 2.54455 7.33866 2.71055C7.17148 2.87654 6.97481 2.95954 6.74864 2.95954C6.60114 2.95954 6.46838 2.91686 6.35038 2.83149C6.09471 2.63229 5.73824 2.44969 5.28098 2.2837C4.82371 2.1177 4.41316 2.0347 4.04932 2.0347C3.4298 2.0347 2.95041 2.14615 2.61115 2.36907C2.27189 2.59198 2.10226 2.88366 2.10226 3.24411C2.10226 3.65199 2.27681 3.96027 2.6259 4.16895C2.975 4.37764 3.52322 4.54838 4.27057 4.68117C5.11627 4.82346 5.79232 5.00605 6.29875 5.22897C6.80519 5.45188 7.18623 5.75541 7.44191 6.13958C7.69758 6.52375 7.82542 7.03359 7.82542 7.66913C7.82542 8.26673 7.65088 8.7908 7.30178 9.24137C6.95269 9.69193 6.48805 10.0382 5.90787 10.28C5.32768 10.5219 4.70326 10.6429 4.03457 10.6429Z" fill="#263034"/>
<path d="M10.1511 9.82029C10.1511 10.2706 9.78896 10.6191 9.34021 10.6191C8.97808 10.6191 8.67381 10.3575 8.57226 10.0236C8.5577 9.96553 8.54352 9.89291 8.54352 9.82029V1.25098C8.54352 0.800656 8.90565 0.452148 9.34021 0.452148C9.78896 0.452148 10.1511 0.800656 10.1511 1.25098V3.77813C10.6148 3.53144 11.1363 3.35662 11.7012 3.35662C13.454 3.35662 14.8588 4.79482 14.8588 6.53773V9.82029C14.8588 10.2706 14.5116 10.6191 14.0621 10.6191C13.6134 10.6191 13.2654 10.2706 13.2654 9.82029V6.53773C13.2654 5.68088 12.5703 4.98349 11.7012 4.96926C10.8466 4.98349 10.166 5.68088 10.1511 6.53773V9.82029Z" fill="#263034"/>
<path fill-rule="evenodd" clip-rule="evenodd" d="M15.6047 7.00211C15.6047 8.01918 15.981 8.91946 16.6041 9.55845C17.2559 10.2412 18.0963 10.6624 19.0957 10.6624C20.0518 10.6624 20.9209 10.2412 21.5145 9.55845C22.1664 8.91946 22.5285 8.01918 22.5285 7.00211C22.5285 6.01461 22.1664 5.15775 21.5145 4.46074C20.9209 3.77757 20.0518 3.35645 19.0957 3.35645C18.0963 3.35645 17.2559 3.77757 16.6041 4.46074C15.981 5.15775 15.6047 6.01461 15.6047 7.00211ZM17.7054 8.54181C17.372 8.13528 17.1835 7.62693 17.1835 7.00216C17.1835 6.40697 17.372 5.88402 17.7054 5.49171C18.0672 5.1724 18.545 4.93994 19.0957 4.93994C19.6027 4.93994 20.0663 5.1724 20.4285 5.49171C20.7906 5.88402 20.9933 6.40697 20.9933 7.00216C20.9933 7.62693 20.7906 8.13528 20.4285 8.54181C20.0663 8.89069 19.6027 9.07898 19.0957 9.07898C18.545 9.07898 18.0672 8.89069 17.7054 8.54181Z" fill="#263034"/>
<path fill-rule="evenodd" clip-rule="evenodd" d="M23.4688 7.01708V12.5651C23.4688 12.9716 23.8168 13.3494 24.2368 13.3494C24.7001 13.3494 25.0622 12.9716 25.0622 12.5651V10.0088C25.5841 10.3865 26.2789 10.6043 27.0032 10.6043C28.9296 10.6043 30.5088 8.99208 30.5088 7.00211C30.5088 5.01251 28.9296 3.35645 27.0032 3.35645C26.2647 3.35645 25.5692 3.60351 25.0335 3.95239C24.9752 3.63271 24.6422 3.35645 24.2368 3.35645C23.8168 3.35645 23.4688 3.70495 23.4688 4.12646V7.00211V7.01708ZM25.627 8.45496C25.2507 8.12068 25.0622 7.56853 25.0622 7.00216C25.0622 6.43579 25.2507 5.91284 25.627 5.53551C25.9892 5.14321 26.4674 4.93994 27.0032 4.93994C27.4956 4.93994 27.9884 5.14321 28.3651 5.53551C28.6981 5.91284 28.9296 6.43579 28.9296 7.00216C28.9296 7.56853 28.6981 8.12068 28.3651 8.45496C27.9884 8.86111 27.4956 9.06475 27.0032 9.06475C26.4674 9.06475 25.9892 8.86111 25.627 8.45496Z" fill="#263034"/>
<path fill-rule="evenodd" clip-rule="evenodd" d="M31.4586 7.01708V12.5651C31.4586 12.9716 31.8066 13.3494 32.2266 13.3494C32.6899 13.3494 33.052 12.9716 33.052 12.5651V10.0088C33.5736 10.3865 34.2687 10.6043 34.993 10.6043C36.9194 10.6043 38.4986 8.99208 38.4986 7.00211C38.4986 5.01251 36.9194 3.35645 34.993 3.35645C34.2545 3.35645 33.559 3.60351 33.0233 3.95239C32.965 3.63271 32.632 3.35645 32.2266 3.35645C31.8066 3.35645 31.4586 3.70495 31.4586 4.12646V7.00211V7.01708ZM33.6169 8.45496C33.2405 8.12068 33.052 7.56853 33.052 7.00216C33.052 6.43579 33.2405 5.91284 33.6169 5.53551C33.979 5.14321 34.4572 4.93994 34.993 4.93994C35.4854 4.93994 35.9782 5.14321 36.3549 5.53551C36.6879 5.91284 36.9194 6.43579 36.9194 7.00216C36.9194 7.56853 36.6879 8.12068 36.3549 8.45496C35.9782 8.86111 35.4854 9.06475 34.993 9.06475C34.4572 9.06475 33.979 8.86111 33.6169 8.45496Z" fill="#263034"/>
<path fill-rule="evenodd" clip-rule="evenodd" d="M40.2381 2.3403C40.6868 2.3403 41.0202 1.97719 41.0202 1.54147V1.23638C41.0202 0.80103 40.6868 0.452148 40.2381 0.452148C39.8035 0.452148 39.4559 0.80103 39.4559 1.23638V1.54147C39.4559 1.97719 39.8035 2.3403 40.2381 2.3403ZM41.0202 9.83487V4.17042C41.0202 3.70549 40.6868 3.37158 40.2381 3.37158C39.8035 3.37158 39.4559 3.70549 39.4559 4.17042V9.83487C39.4559 10.2706 39.8035 10.6191 40.2381 10.6191C40.6868 10.6191 41.0202 10.2706 41.0202 9.83487Z" fill="#263034"/>
<path d="M48.2164 6.37771V9.84893C48.2164 10.2701 47.883 10.6186 47.463 10.6186C47.0572 10.6186 46.6951 10.2701 46.6951 9.84893V6.37771C46.6951 5.56428 46.0145 4.91069 45.1887 4.91069C44.3778 4.91069 43.7405 5.56428 43.7405 6.37771V9.84893C43.7405 9.89236 43.7405 9.93578 43.711 9.99418C43.6386 10.3427 43.3201 10.6186 42.9438 10.6186C42.5093 10.6186 42.1759 10.2701 42.1759 9.84893V6.37771V4.12608C42.1759 3.70495 42.5093 3.35645 42.9438 3.35645C43.2477 3.35645 43.5232 3.53089 43.6535 3.80677C44.0881 3.53089 44.6238 3.35645 45.1887 3.35645C46.869 3.35645 48.2164 4.73662 48.2164 6.37771Z" fill="#263034"/>
<path fill-rule="evenodd" clip-rule="evenodd" d="M55.9776 9.73338V7.03179V7.01719V4.12657C55.9776 3.70544 55.6442 3.35693 55.2097 3.35693C54.8334 3.35693 54.5145 3.61822 54.4421 3.9671C53.9206 3.5894 53.2542 3.35693 52.5011 3.35693C51.545 3.35693 50.6614 3.77806 50.0383 4.43165C49.4155 5.11444 49.0243 6.0151 49.0243 7.01719C49.0243 8.03389 49.4155 8.93417 50.0383 9.57316C50.6614 10.256 51.545 10.6771 52.5011 10.6771C53.2108 10.6771 53.8769 10.4592 54.3988 10.0965C54.2103 10.9822 53.4423 11.65 52.5011 11.65C52.1969 11.65 51.9217 11.5774 51.6753 11.4471C51.2699 11.2726 50.8204 11.4179 50.6326 11.8102C50.4295 12.2021 50.6031 12.6817 50.9802 12.8557C51.4289 13.0886 51.965 13.2188 52.5011 13.2188C54.4275 13.2188 55.9776 11.6358 55.9776 9.73338ZM53.8768 5.53566C54.1956 5.88416 54.4275 6.43593 54.4275 7.01728C54.4275 7.62707 54.1956 8.17922 53.8768 8.51313C53.5005 8.90543 53.0514 9.1087 52.5011 9.1087C51.9941 9.1087 51.5159 8.90543 51.1683 8.51313C50.8203 8.17922 50.5889 7.62707 50.5889 7.01728C50.5889 6.43593 50.8203 5.88416 51.1683 5.53566C51.5159 5.12875 51.9941 4.91089 52.5011 4.91089C53.0514 4.91089 53.5005 5.12875 53.8768 5.53566Z" fill="#263034"/>
<path fill-rule="evenodd" clip-rule="evenodd" d="M69.0687 2.8403C69.5174 2.8403 69.8508 2.47719 69.8508 2.04147V1.73638C69.8508 1.30103 69.5174 0.952148 69.0687 0.952148C68.6341 0.952148 68.2866 1.30103 68.2866 1.73638V2.04147C68.2866 2.47719 68.6341 2.8403 69.0687 2.8403ZM69.8508 10.3349V4.67042C69.8508 4.20549 69.5174 3.87158 69.0687 3.87158C68.6341 3.87158 68.2866 4.20549 68.2866 4.67042V10.3349C68.2866 10.7706 68.6341 11.1191 69.0687 11.1191C69.5174 11.1191 69.8508 10.7706 69.8508 10.3349Z" fill="#263034"/>
<path d="M76.8609 4.77198L74.4854 10.4072C74.4712 10.4507 74.4417 10.4945 74.4276 10.5091C74.4276 10.5233 74.413 10.5233 74.413 10.5233C74.3839 10.5529 74.3551 10.5959 74.3264 10.6255C74.3264 10.6397 74.3114 10.6397 74.3114 10.6397C74.2827 10.6831 74.254 10.6981 74.2245 10.7269C74.2245 10.7269 74.2103 10.7269 74.2103 10.7411C74.1815 10.7707 74.152 10.7995 74.1091 10.8138H74.0796V10.8284C74.0367 10.8284 73.993 10.8433 73.9639 10.8576H73.9348C73.8769 10.8722 73.8336 10.8722 73.7899 10.8722C73.7612 10.8722 73.7175 10.8722 73.6596 10.8576H73.6309C73.5872 10.8433 73.5584 10.8284 73.5148 10.8284V10.8138H73.486C73.4423 10.7995 73.4136 10.7707 73.3557 10.7411C73.3557 10.7269 73.3412 10.7269 73.3412 10.7269C73.312 10.6981 73.2833 10.6831 73.2542 10.6397C73.2396 10.6397 73.2396 10.6397 73.225 10.6255C73.2109 10.5959 73.1817 10.5529 73.1526 10.5233C73.1384 10.5233 73.1384 10.5233 73.1384 10.5091C73.1093 10.4945 73.0948 10.4507 73.0802 10.4072L70.7334 4.77198C70.5598 4.37968 70.748 3.95855 71.1538 3.78411C71.5014 3.60967 71.9505 3.81331 72.1245 4.20561L73.7899 8.15598L75.4706 4.20561C75.6297 3.81331 76.0642 3.60967 76.4409 3.78411C76.8464 3.95855 77.0349 4.37968 76.8609 4.77198Z" fill="#263034"/>
<path fill-rule="evenodd" clip-rule="evenodd" d="M80.7543 3.72119C78.77 3.72119 77.2345 5.37726 77.2199 7.35225C77.2345 9.32763 78.77 10.9691 80.7543 10.9833C81.7828 10.9833 82.6373 10.6786 83.3471 10.025C83.6801 9.71993 83.5352 9.2842 83.3471 9.08056C83.1589 8.84848 82.5649 8.80505 82.2607 9.12436C81.8985 9.40025 81.2758 9.53127 80.7543 9.48747C80.2473 9.44367 79.6679 9.18238 79.3636 8.83388C79.103 8.58681 78.9436 8.20911 78.8712 7.87558H83.4777C83.8832 7.87558 84.1871 7.64274 84.2307 7.29423C84.2449 7.26541 84.2449 7.19279 84.2449 7.16396V7.09134C84.1296 5.13019 82.6373 3.72119 80.7543 3.72119ZM82.8979 6.64059H78.7987C78.9148 6.04539 79.523 5.15934 80.7542 5.10132C82.0146 5.20276 82.7531 6.05962 82.8979 6.64059Z" fill="#263034"/>
<path d="M85.1322 8.9065C85.3932 8.55799 85.9002 8.51419 86.2186 8.79008C86.5953 9.10976 87.2472 9.44367 87.812 9.42907C88.2033 9.42907 88.565 9.29843 88.7969 9.15319C88.9996 8.97912 89.0578 8.83388 89.0578 8.71746C89.0578 8.64484 89.0433 8.61601 89.0142 8.57222C88.9996 8.52879 88.9417 8.47077 88.826 8.39815C88.6233 8.25291 88.1887 8.09344 87.6672 7.99125H87.6526C87.2035 7.9044 86.7689 7.78798 86.3926 7.61391C86.0014 7.42487 85.6534 7.16359 85.3932 6.77128C85.2334 6.50962 85.1468 6.19031 85.1468 5.85641C85.1468 5.18822 85.5235 4.62184 86.0014 4.25874C86.5083 3.91023 87.1169 3.72119 87.7829 3.72119C88.7823 3.72119 89.4924 4.20072 89.9561 4.5204C90.3036 4.75249 90.4048 5.23201 90.1875 5.59512C89.9561 5.94363 89.4778 6.04507 89.1157 5.79801C88.652 5.4933 88.2466 5.26084 87.7829 5.26084C87.4208 5.26084 87.1023 5.37726 86.9138 5.5225C86.7256 5.65277 86.6823 5.78378 86.6823 5.85641C86.6823 5.91443 86.6823 5.92903 86.7111 5.97245C86.7256 6.00165 86.7689 6.05967 86.8705 6.11769C87.0586 6.24871 87.4353 6.37935 87.9278 6.46657L87.9423 6.4808H87.9569C88.4347 6.56802 88.8842 6.69866 89.3042 6.9023C89.6951 7.07637 90.086 7.35225 90.3324 7.75916C90.506 8.04964 90.6079 8.38392 90.6079 8.71746C90.6079 9.42907 90.2167 10.025 89.6951 10.4023C89.1739 10.7655 88.5221 10.9833 87.812 10.9833C86.6823 10.9691 85.8132 10.4458 85.2334 9.98122C84.915 9.71956 84.8713 9.22581 85.1322 8.9065Z" fill="#263034"/>
<path d="M65.9137 5.24993C66.1762 5.24993 66.3934 5.33517 66.5651 5.50565C66.7368 5.67614 66.8226 5.88802 66.8226 6.14131V9.23925C66.8226 9.58022 66.6661 9.84325 66.353 10.0283C65.3632 10.6226 64.2776 10.9197 63.0959 10.9197C62.0961 10.9197 61.172 10.6835 60.3237 10.211C59.4753 9.73852 58.8037 9.10043 58.3088 8.29672C57.814 7.493 57.5665 6.6138 57.5665 5.65909C57.5665 4.70437 57.814 3.82517 58.3088 3.02146C58.8037 2.21774 59.4753 1.57965 60.3237 1.10716C61.172 0.634677 62.0961 0.398438 63.0959 0.398438C64.0958 0.398438 64.9643 0.593274 65.7016 0.982954C65.8531 1.06089 65.9667 1.16318 66.0424 1.28983C66.1182 1.41647 66.156 1.55286 66.156 1.69899C66.156 1.94254 66.0727 2.15442 65.9061 2.33465C65.7394 2.51488 65.5349 2.60499 65.2925 2.60499C65.1411 2.60499 64.9744 2.56602 64.7926 2.48808C64.2473 2.26402 63.6817 2.15199 63.0959 2.15199C62.4496 2.15199 61.8537 2.31029 61.3083 2.62691C60.763 2.94352 60.3312 3.36973 60.0131 3.90554C59.695 4.44135 59.5359 5.02586 59.5359 5.65909C59.5359 6.29232 59.695 6.87683 60.0131 7.41264C60.3312 7.94845 60.763 8.37465 61.3083 8.69127C61.8537 9.00788 62.4496 9.16619 63.0959 9.16619C63.3787 9.16619 63.6817 9.14183 64.0049 9.09312C64.3281 9.04441 64.6108 8.98109 64.8532 8.90315V7.00347H63.4292C63.1666 7.00347 62.947 6.92067 62.7702 6.75505C62.5935 6.58944 62.5051 6.37999 62.5051 6.1267C62.5051 5.87341 62.5935 5.66396 62.7702 5.49834C62.947 5.33273 63.1666 5.24993 63.4292 5.24993H65.9137Z" fill="#263034"/>
</svg>
