<svg width="17" height="14" viewBox="0 0 17 14" fill="none" xmlns="http://www.w3.org/2000/svg">
<path fill-rule="evenodd" clip-rule="evenodd" d="M14.658 3.23958C14.6649 3.38021 14.6684 3.52257 14.6684 3.66493C14.6684 8.00174 11.3663 13.0035 5.32812 13.0035C3.47569 13.0035 1.74826 12.4618 0.296875 11.5278C0.553819 11.559 0.815972 11.5729 1.07986 11.5729C2.61806 11.5729 4.03299 11.0486 5.15799 10.1667C3.72222 10.1406 2.50868 9.19097 2.09028 7.88889C2.28993 7.92708 2.49653 7.94792 2.7066 7.94792C3.00694 7.94792 3.29688 7.90799 3.57118 7.83333C2.07118 7.53125 0.9375 6.20486 0.9375 4.61458C0.9375 4.60069 0.9375 4.58681 0.939236 4.57465C1.38194 4.81944 1.88889 4.96701 2.42535 4.98438C1.54688 4.39583 0.967014 3.39236 0.967014 2.25174C0.967014 1.64931 1.12847 1.08507 1.41146 0.600694C3.02951 2.58854 5.44965 3.89583 8.17708 4.03125C8.12153 3.79167 8.09201 3.54167 8.09201 3.28299C8.09201 1.47049 9.5625 0 11.375 0C12.3194 0 13.1719 0.397569 13.7708 1.03646C14.5191 0.890625 15.2222 0.618056 15.8559 0.241319C15.6094 1.00694 15.0903 1.65104 14.4115 2.05729C15.0764 1.97743 15.7083 1.80208 16.2969 1.53993C15.8576 2.19792 15.2986 2.77604 14.658 3.23958Z" fill="white"/>
</svg>
